<?xml version="1.0" encoding="UTF-8" standalone="no"?>
<!-- Created with Inkscape (http://www.inkscape.org/) -->

<svg
   version="1.1"
   id="svg2"
   width="1701.12"
   height="608.07465"
   viewBox="0 0 1701.12 608.07465"
   sodipodi:docname="raadar logo final .ai"
   xmlns:inkscape="http://www.inkscape.org/namespaces/inkscape"
   xmlns:sodipodi="http://sodipodi.sourceforge.net/DTD/sodipodi-0.dtd"
   xmlns="http://www.w3.org/2000/svg"
   xmlns:svg="http://www.w3.org/2000/svg">
  <defs
     id="defs6">
    <clipPath
       clipPathUnits="userSpaceOnUse"
       id="clipPath16">
      <path
         d="M 0,456.056 H 1275.837 V 0 H 0 Z"
         id="path14" />
    </clipPath>
  </defs>
  <sodipodi:namedview
     id="namedview4"
     pagecolor="#ffffff"
     bordercolor="#000000"
     borderopacity="0.25"
     inkscape:showpageshadow="2"
     inkscape:pageopacity="0.0"
     inkscape:pagecheckerboard="0"
     inkscape:deskcolor="#d1d1d1" />
  <g
     id="g8"
     inkscape:groupmode="layer"
     inkscape:label="raadar logo final "
     transform="matrix(1.3333333,0,0,-1.3333333,0,608.07467)">
    <g
       id="g10">
      <g
         id="g12"
         clip-path="url(#clipPath16)">
        <g
           id="g18"
           transform="translate(463.5712,334.2964)">
          <path
             d="m 0,0 c -4.989,0 -9.591,-0.912 -13.807,-2.732 -4.221,-1.826 -7.866,-4.271 -10.931,-7.336 -3.07,-3.07 -5.515,-6.665 -7.336,-10.787 -1.824,-4.126 -2.732,-8.584 -2.732,-13.376 0,-4.603 0.908,-9.017 2.732,-13.233 1.821,-4.22 4.315,-7.91 7.48,-11.074 3.164,-3.165 6.854,-5.659 11.074,-7.48 4.216,-1.825 8.725,-2.732 13.52,-2.732 4.604,0 8.963,0.862 13.09,2.589 4.121,1.725 7.765,4.171 10.93,7.335 3.164,3.164 5.654,6.805 7.48,10.93 1.82,4.123 2.732,8.675 2.732,13.665 0,4.792 -0.912,9.25 -2.732,13.376 -1.826,4.122 -4.316,7.717 -7.48,10.787 -3.165,3.065 -6.809,5.51 -10.93,7.336 C 8.963,-0.912 4.604,0 0,0 m 46.602,-129.734 c 1.339,-1.344 2.3,-2.926 2.877,-4.746 0.574,-1.826 0.861,-3.695 0.861,-5.61 0,-1.919 -0.287,-3.789 -0.861,-5.609 -0.577,-1.824 -1.538,-3.407 -2.877,-4.746 -1.538,-1.537 -3.215,-2.589 -5.036,-3.164 -1.824,-0.576 -3.693,-0.864 -5.609,-0.864 -1.725,0 -3.451,0.288 -5.178,0.864 -1.724,0.575 -3.357,1.627 -4.888,3.164 l -60.697,60.696 v -50.053 c 0,-4.22 -1.439,-7.721 -4.315,-10.5 -2.877,-2.782 -6.329,-4.171 -10.356,-4.171 -3.838,0 -7.191,1.389 -10.068,4.171 -2.876,2.779 -4.315,6.28 -4.315,10.5 v 105.571 c 0.189,8.436 1.915,16.491 5.178,24.163 3.259,7.668 7.767,14.428 13.52,20.28 5.753,5.848 12.464,10.5 20.136,13.951 7.668,3.452 16.01,5.179 25.026,5.179 8.244,0 16.154,-1.632 23.732,-4.891 7.575,-3.263 14.239,-7.766 19.993,-13.519 5.754,-5.754 10.355,-12.514 13.806,-20.281 3.453,-7.766 5.179,-16.064 5.179,-24.882 0,-13.62 -4.413,-25.989 -13.231,-37.108 -8.825,-11.125 -20.524,-19.849 -35.096,-26.178 z"
             style="fill:#28aae1;fill-opacity:1;fill-rule:nonzero;stroke:none"
             id="path20" />
        </g>
        <g
           id="g22"
           transform="translate(602.7943,208.0142)">
          <path
             d="m 0,0 c 5.56,0 10.882,1.052 15.965,3.164 5.079,2.108 9.493,5.034 13.232,8.774 3.74,3.74 6.711,8.099 8.917,13.088 2.203,4.985 3.309,10.451 3.309,16.397 0,5.367 -1.106,10.594 -3.309,15.678 -2.206,5.079 -5.226,9.492 -9.06,13.232 -3.839,3.739 -8.248,6.76 -13.233,9.061 C 10.832,81.695 5.56,82.846 0,82.846 c -5.564,0 -10.787,-1.106 -15.678,-3.308 -4.889,-2.207 -9.254,-5.227 -13.088,-9.061 -3.838,-3.839 -6.859,-8.248 -9.061,-13.233 -2.207,-4.989 -3.309,-10.261 -3.309,-15.821 0,-5.753 1.152,-11.124 3.452,-16.109 2.302,-4.989 5.416,-9.349 9.349,-13.088 3.929,-3.74 8.343,-6.715 13.232,-8.917 C -10.212,1.102 -5.178,0 0,0 m 8.342,110.749 c 8.63,-0.962 16.729,-3.452 24.307,-7.479 7.574,-4.028 14.095,-9.161 19.561,-15.39 5.466,-6.234 9.78,-13.331 12.944,-21.287 3.165,-7.96 4.747,-16.352 4.747,-25.17 v -55.518 c 0,-3.839 -1.438,-7.146 -4.315,-9.925 -2.876,-2.782 -6.14,-4.17 -9.78,-4.17 -1.344,0 -2.832,0.094 -4.459,0.288 -1.631,0.188 -3.213,0.718 -4.746,1.582 -1.538,0.862 -2.926,2.058 -4.171,3.595 -1.25,1.533 -1.969,3.641 -2.158,6.329 -0.961,-0.387 -2.688,-1.25 -5.177,-2.589 -2.495,-1.344 -4.316,-2.301 -5.466,-2.877 -2.112,-0.962 -4.316,-1.825 -6.616,-2.589 -2.302,-0.769 -4.701,-1.537 -7.192,-2.301 -4.796,-0.962 -9.973,-1.438 -15.534,-1.438 -14.383,0 -27.232,3.883 -38.546,11.65 -11.317,7.767 -19.754,17.785 -25.313,30.061 -1.92,4.215 -3.407,8.673 -4.459,13.375 -1.057,4.697 -1.582,9.538 -1.582,14.527 0,4.984 0.525,9.78 1.582,14.383 1.052,4.602 2.539,9.106 4.459,13.52 5.559,12.464 13.996,22.531 25.313,30.204 11.314,7.668 24.163,11.506 38.546,11.506 h 4.027 c 1.152,0 2.491,-0.098 4.028,-0.287"
             style="fill:#28aae1;fill-opacity:1;fill-rule:nonzero;stroke:none"
             id="path24" />
        </g>
        <g
           id="g26"
           transform="translate(750.0736,208.0142)">
          <path
             d="m 0,0 c 5.56,0 10.882,1.052 15.965,3.164 5.079,2.108 9.493,5.034 13.232,8.774 3.74,3.74 6.711,8.099 8.917,13.088 2.203,4.985 3.309,10.451 3.309,16.397 0,5.367 -1.106,10.594 -3.309,15.678 -2.206,5.079 -5.226,9.492 -9.06,13.232 -3.839,3.739 -8.248,6.76 -13.233,9.061 C 10.832,81.695 5.56,82.846 0,82.846 c -5.564,0 -10.787,-1.106 -15.678,-3.308 -4.889,-2.207 -9.254,-5.227 -13.088,-9.061 -3.838,-3.839 -6.859,-8.248 -9.061,-13.233 -2.207,-4.989 -3.309,-10.261 -3.309,-15.821 0,-5.753 1.152,-11.124 3.452,-16.109 2.302,-4.989 5.416,-9.349 9.349,-13.088 3.929,-3.74 8.343,-6.715 13.232,-8.917 C -10.212,1.102 -5.178,0 0,0 m 8.342,110.749 c 8.63,-0.962 16.729,-3.452 24.307,-7.479 7.574,-4.028 14.095,-9.161 19.561,-15.39 5.466,-6.234 9.78,-13.331 12.944,-21.287 3.165,-7.96 4.747,-16.352 4.747,-25.17 v -55.518 c 0,-3.839 -1.438,-7.146 -4.315,-9.925 -2.876,-2.782 -6.14,-4.17 -9.78,-4.17 -1.344,0 -2.832,0.094 -4.459,0.288 -1.631,0.188 -3.213,0.718 -4.746,1.582 -1.538,0.862 -2.926,2.058 -4.171,3.595 -1.25,1.533 -1.969,3.641 -2.158,6.329 -0.961,-0.387 -2.688,-1.25 -5.177,-2.589 -2.495,-1.344 -4.316,-2.301 -5.466,-2.877 -2.112,-0.962 -4.316,-1.825 -6.616,-2.589 -2.302,-0.769 -4.701,-1.537 -7.192,-2.301 -4.796,-0.962 -9.973,-1.438 -15.534,-1.438 -14.383,0 -27.232,3.883 -38.546,11.65 -11.317,7.767 -19.754,17.785 -25.313,30.061 -1.92,4.215 -3.407,8.673 -4.459,13.375 -1.057,4.697 -1.582,9.538 -1.582,14.527 0,4.984 0.525,9.78 1.582,14.383 1.052,4.602 2.539,9.106 4.459,13.52 5.559,12.464 13.996,22.531 25.313,30.204 11.314,7.668 24.163,11.506 38.546,11.506 h 4.027 c 1.152,0 2.491,-0.098 4.028,-0.287"
             style="fill:#28aae1;fill-opacity:1;fill-rule:nonzero;stroke:none"
             id="path28" />
        </g>
        <g
           id="g30"
           transform="translate(936.7621,249.4371)">
          <path
             d="m 0,0 c 0,5.178 -1.105,10.257 -3.308,15.246 -2.207,4.984 -5.227,9.443 -9.061,13.376 -3.839,3.929 -8.248,7.048 -13.233,9.349 -4.989,2.301 -10.261,3.452 -15.821,3.452 -5.564,0 -10.886,-1.106 -15.965,-3.308 -5.084,-2.207 -9.493,-5.177 -13.232,-8.918 -3.739,-3.739 -6.715,-8.153 -8.918,-13.232 C -81.744,10.882 -82.846,5.561 -82.846,0 c 0,-5.753 1.102,-11.124 3.308,-16.108 2.203,-4.99 5.179,-9.35 8.918,-13.089 3.739,-3.74 8.148,-6.715 13.232,-8.917 5.079,-2.207 10.401,-3.309 15.965,-3.309 5.56,0 10.832,1.102 15.821,3.309 4.985,2.202 9.394,5.177 13.233,8.917 3.834,3.739 6.854,8.099 9.061,13.089 C -1.105,-11.124 0,-5.753 0,0 m 14.958,113.913 c 3.259,0.189 6.329,-1.105 9.205,-3.884 2.877,-2.782 4.316,-5.802 4.316,-9.06 V 0 c 0,-9.398 -1.92,-18.315 -5.754,-26.752 C 18.887,-35.193 13.709,-42.573 7.191,-48.901 0.67,-55.23 -6.76,-60.265 -15.103,-64.004 c -8.341,-3.739 -17.115,-5.609 -26.32,-5.609 -9.398,0 -18.315,1.82 -26.752,5.466 -8.441,3.64 -15.821,8.629 -22.15,14.958 -6.328,6.328 -11.363,13.709 -15.102,22.149 -3.74,8.436 -5.609,17.448 -5.609,27.04 0,10.355 1.677,19.462 5.034,27.328 3.353,7.86 8.387,15.245 15.102,22.15 v -0.289 c 7.092,6.711 14.909,11.794 23.444,15.247 8.531,3.452 17.305,5.177 26.321,5.177 5.366,0 11.744,-0.862 19.129,-2.589 C -14.626,65.299 -7.29,61.941 0,56.957 V 99.53 c 0,1.915 0.382,3.74 1.15,5.466 0.765,1.726 1.772,3.308 3.021,4.746 1.245,1.439 2.733,2.539 4.459,3.308 1.725,0.764 3.452,1.052 5.178,0.863 z"
             style="fill:#28aae1;fill-opacity:1;fill-rule:nonzero;stroke:none"
             id="path32" />
        </g>
        <g
           id="g34"
           transform="translate(1042.9076,208.0142)">
          <path
             d="m 0,0 c 5.56,0 10.882,1.052 15.965,3.164 5.079,2.108 9.493,5.034 13.232,8.774 3.74,3.74 6.711,8.099 8.917,13.088 2.203,4.985 3.309,10.451 3.309,16.397 0,5.367 -1.106,10.594 -3.309,15.678 -2.206,5.079 -5.226,9.492 -9.06,13.232 -3.839,3.739 -8.248,6.76 -13.233,9.061 C 10.832,81.695 5.56,82.846 0,82.846 c -5.564,0 -10.787,-1.106 -15.678,-3.308 -4.889,-2.207 -9.254,-5.227 -13.088,-9.061 -3.838,-3.839 -6.859,-8.248 -9.061,-13.233 -2.207,-4.989 -3.309,-10.261 -3.309,-15.821 0,-5.753 1.152,-11.124 3.452,-16.109 2.302,-4.989 5.416,-9.349 9.349,-13.088 3.929,-3.74 8.343,-6.715 13.232,-8.917 C -10.212,1.102 -5.178,0 0,0 m 8.342,110.749 c 8.63,-0.962 16.729,-3.452 24.307,-7.479 7.574,-4.028 14.095,-9.161 19.561,-15.39 5.466,-6.234 9.78,-13.331 12.944,-21.287 3.165,-7.96 4.747,-16.352 4.747,-25.17 v -55.518 c 0,-3.839 -1.438,-7.146 -4.315,-9.925 -2.876,-2.782 -6.14,-4.17 -9.78,-4.17 -1.344,0 -2.832,0.094 -4.459,0.288 -1.631,0.188 -3.213,0.718 -4.746,1.582 -1.538,0.862 -2.926,2.058 -4.171,3.595 -1.25,1.533 -1.969,3.641 -2.158,6.329 -0.961,-0.387 -2.688,-1.25 -5.177,-2.589 -2.495,-1.344 -4.316,-2.301 -5.466,-2.877 -2.112,-0.962 -4.316,-1.825 -6.616,-2.589 -2.302,-0.769 -4.701,-1.537 -7.192,-2.301 -4.796,-0.962 -9.973,-1.438 -15.534,-1.438 -14.383,0 -27.232,3.883 -38.546,11.65 -11.317,7.767 -19.754,17.785 -25.313,30.061 -1.92,4.215 -3.407,8.673 -4.459,13.375 -1.057,4.697 -1.582,9.538 -1.582,14.527 0,4.984 0.525,9.78 1.582,14.383 1.052,4.602 2.539,9.106 4.459,13.52 5.559,12.464 13.996,22.531 25.313,30.204 11.314,7.668 24.163,11.506 38.546,11.506 h 4.027 c 1.152,0 2.491,-0.098 4.028,-0.287"
             style="fill:#28aae1;fill-opacity:1;fill-rule:nonzero;stroke:none"
             id="path36" />
        </g>
        <g
           id="g38"
           transform="translate(1134.9564,179.5357)">
          <path
             d="m 0,0 c -3.646,0 -6.76,1.34 -9.349,4.027 -2.589,2.684 -4.172,5.943 -4.747,9.781 v 57.82 c 0.19,9.393 2.158,18.122 5.898,26.177 3.739,8.053 8.773,15.101 15.101,21.142 6.329,6.041 13.664,10.832 22.006,14.383 8.343,3.547 17.211,5.511 26.609,5.898 3.641,-0.194 6.805,-1.727 9.493,-4.603 2.683,-2.877 4.314,-6.041 4.89,-9.493 -0.386,-3.645 -1.92,-6.859 -4.602,-9.637 -2.689,-2.782 -5.947,-4.269 -9.781,-4.458 -5.564,0 -10.836,-1.057 -15.821,-3.165 C 34.708,105.76 30.348,102.839 26.608,99.099 22.869,95.359 19.894,90.995 17.69,86.011 15.484,81.021 14.383,75.556 14.383,69.614 V 12.37 C 13.808,9.106 12.226,6.23 9.637,3.74 7.048,1.245 3.834,0 0,0"
             style="fill:#28aae1;fill-opacity:1;fill-rule:nonzero;stroke:none"
             id="path40" />
        </g>
        <g
           id="g42"
           transform="translate(417.7738,127.9498)">
          <path
             d="m 0,0 c -1.255,0 -2.434,-0.22 -3.536,-0.658 -1.103,-0.44 -2.073,-1.059 -2.909,-1.861 -0.837,-0.801 -1.492,-1.774 -1.967,-2.918 -0.476,-1.146 -0.713,-2.444 -0.713,-3.893 0,-1.451 0.237,-2.758 0.713,-3.922 0.475,-1.164 1.13,-2.146 1.967,-2.948 0.836,-0.801 1.806,-1.422 2.909,-1.861 1.102,-0.438 2.281,-0.658 3.536,-0.658 2.015,0 3.697,0.458 5.047,1.374 1.349,0.916 2.367,2.071 3.051,3.463 0.685,1.394 1.027,2.901 1.027,4.523 0,1.622 -0.342,3.129 -1.027,4.522 C 7.414,-3.444 6.396,-2.289 5.047,-1.374 3.697,-0.458 2.015,0 0,0 m 9.125,0.286 0.171,4.466 h 5.703 V -23.47 H 9.41 l -0.285,4.579 c -0.457,-0.915 -1.055,-1.708 -1.797,-2.375 -0.741,-0.668 -1.559,-1.221 -2.452,-1.66 -0.894,-0.439 -1.806,-0.762 -2.737,-0.973 -0.932,-0.209 -1.835,-0.315 -2.709,-0.315 -2.054,0 -3.964,0.324 -5.732,0.973 -1.768,0.649 -3.289,1.603 -4.563,2.862 -1.274,1.26 -2.281,2.815 -3.022,4.666 -0.742,1.851 -1.113,3.979 -1.113,6.383 0,2.365 0.38,4.465 1.141,6.297 0.76,1.831 1.796,3.367 3.109,4.607 1.311,1.24 2.851,2.185 4.619,2.834 1.768,0.649 3.659,0.973 5.674,0.973 2.016,0 3.897,-0.448 5.646,-1.345 C 6.938,3.139 8.25,1.89 9.125,0.286"
             style="fill:#636466;fill-opacity:1;fill-rule:nonzero;stroke:none"
             id="path44" />
        </g>
        <g
           id="g46"
           transform="translate(466.535,144.5504)">
          <path
             d="m 0,0 v -16.028 c 1.216,1.717 2.613,2.91 4.191,3.578 1.578,0.667 3.223,1.002 4.934,1.002 1.976,0 3.697,-0.315 5.161,-0.945 1.464,-0.629 2.671,-1.537 3.622,-2.719 0.949,-1.183 1.654,-2.596 2.11,-4.236 0.456,-1.641 0.684,-3.473 0.684,-5.496 V -40.07 h -5.874 v 15.17 c 0,2.671 -0.637,4.665 -1.911,5.981 -1.274,1.316 -2.994,1.976 -5.161,1.976 -1.141,0 -2.187,-0.221 -3.137,-0.66 -0.951,-0.438 -1.767,-1.04 -2.452,-1.802 C 1.482,-20.169 0.95,-21.065 0.57,-22.096 0.189,-23.126 0,-24.214 0,-25.358 V -40.07 H -5.875 V 0 Z"
             style="fill:#636466;fill-opacity:1;fill-rule:nonzero;stroke:none"
             id="path48" />
        </g>
        <g
           id="g50"
           transform="translate(523.2811,132.7017)">
          <path
             d="m 0,0 -17.737,-41.33 h -6.501 l 5.817,13.509 L -29.656,0 h 6.844 l 4.847,-13.338 2.795,-8.015 3.022,7.9 L -6.559,0 Z"
             style="fill:#636466;fill-opacity:1;fill-rule:nonzero;stroke:none"
             id="path52" />
        </g>
        <g
           id="g54"
           transform="translate(546.265,109.5748)">
          <path
             d="m 0,0 c 1.292,0 2.48,0.219 3.564,0.658 1.084,0.439 2.025,1.06 2.824,1.861 0.798,0.801 1.416,1.746 1.853,2.834 0.437,1.086 0.655,2.298 0.655,3.634 0,2.671 -0.807,4.837 -2.423,6.497 -1.617,1.661 -3.774,2.491 -6.473,2.491 -1.369,0 -2.595,-0.229 -3.679,-0.687 C -4.763,16.83 -5.685,16.19 -6.444,15.37 -7.206,14.549 -7.795,13.596 -8.213,12.508 -8.632,11.42 -8.84,10.247 -8.84,8.987 -8.84,7.728 -8.622,6.555 -8.185,5.467 -7.747,4.379 -7.139,3.425 -6.359,2.604 -5.58,1.783 -4.648,1.145 -3.564,0.687 -2.481,0.229 -1.293,0 0,0 m -15.228,-18.203 v 41.33 h 5.533 l 0.341,-4.58 c 1.103,1.718 2.557,3.006 4.364,3.864 1.805,0.859 3.659,1.288 5.56,1.288 2.091,0 4.011,-0.372 5.76,-1.116 1.749,-0.744 3.251,-1.766 4.506,-3.063 1.255,-1.297 2.225,-2.843 2.908,-4.636 0.685,-1.795 1.027,-3.76 1.027,-5.897 0,-2.137 -0.333,-4.102 -0.998,-5.896 C 13.107,1.297 12.166,-0.258 10.95,-1.574 9.732,-2.891 8.241,-3.912 6.473,-4.637 4.705,-5.361 2.737,-5.725 0.57,-5.725 c -0.875,0 -1.778,0.086 -2.709,0.258 -0.932,0.172 -1.844,0.439 -2.737,0.802 -0.895,0.362 -1.73,0.849 -2.51,1.459 -0.779,0.61 -1.435,1.354 -1.968,2.232 v -17.229 z"
             style="fill:#636466;fill-opacity:1;fill-rule:nonzero;stroke:none"
             id="path56" />
        </g>
        <g
           id="g58"
           transform="translate(574.6664,121.3668)">
          <path
             d="M 0,0 H 17.052 C 16.861,2.252 16.025,3.95 14.543,5.095 13.06,6.24 11.121,6.812 8.726,6.812 6.559,6.812 4.676,6.24 3.079,5.095 1.482,3.95 0.456,2.252 0,0 M 22.698,-4.979 H -0.114 c 0.265,-2.176 1.216,-3.904 2.851,-5.181 1.634,-1.279 3.744,-1.918 6.33,-1.918 1.445,0 2.947,0.258 4.506,0.772 1.559,0.516 2.775,1.269 3.651,2.262 l 3.82,-3.722 c -0.723,-0.8 -1.56,-1.507 -2.509,-2.117 -0.951,-0.611 -1.949,-1.116 -2.994,-1.517 -1.047,-0.401 -2.139,-0.696 -3.279,-0.887 -1.141,-0.191 -2.244,-0.286 -3.308,-0.286 -2.32,0 -4.411,0.352 -6.274,1.058 -1.864,0.706 -3.451,1.707 -4.762,3.005 -1.312,1.298 -2.329,2.871 -3.051,4.723 -0.722,1.85 -1.084,3.902 -1.084,6.154 0,2.137 0.362,4.112 1.084,5.925 0.722,1.812 1.73,3.367 3.023,4.665 1.292,1.297 2.841,2.309 4.647,3.034 1.806,0.725 3.812,1.088 6.018,1.088 2.281,0 4.342,-0.353 6.187,-1.059 1.844,-0.707 3.403,-1.766 4.677,-3.177 1.273,-1.412 2.205,-3.187 2.795,-5.324 0.589,-2.138 0.75,-4.637 0.484,-7.498"
             style="fill:#636466;fill-opacity:1;fill-rule:nonzero;stroke:none"
             id="path60" />
        </g>
        <g
           id="g62"
           transform="translate(611.6781,132.7017)">
          <path
             d="m 0,0 0.399,-3.722 c 1.027,1.794 2.282,2.967 3.765,3.521 1.482,0.553 2.984,0.83 4.505,0.83 1.369,0 2.671,-0.22 3.907,-0.658 1.235,-0.439 2.253,-1.022 3.051,-1.746 l -2.681,-5.152 c -0.722,0.573 -1.454,1.002 -2.195,1.288 C 10.01,-5.353 9.087,-5.21 7.985,-5.21 6.958,-5.21 5.988,-5.372 5.076,-5.696 4.164,-6.02 3.365,-6.498 2.681,-7.127 1.996,-7.757 1.445,-8.559 1.027,-9.531 0.608,-10.505 0.399,-11.641 0.399,-12.937 V -28.222 H -5.475 V 0 Z"
             style="fill:#636466;fill-opacity:1;fill-rule:nonzero;stroke:none"
             id="path64" />
        </g>
        <g
           id="g66"
           transform="translate(667.7963,125.775)">
          <path
             d="m 0,0 c -1.104,1.03 -2.263,1.727 -3.479,2.089 -1.217,0.362 -2.529,0.544 -3.935,0.544 -1.825,0.038 -3.279,-0.238 -4.363,-0.83 -1.083,-0.592 -1.625,-1.441 -1.625,-2.547 0.037,-1.184 0.607,-2.032 1.711,-2.548 1.102,-0.515 2.566,-0.868 4.391,-1.059 1.292,-0.114 2.642,-0.295 4.049,-0.544 1.406,-0.249 2.699,-0.686 3.879,-1.316 1.178,-0.63 2.139,-1.498 2.88,-2.604 0.741,-1.108 1.112,-2.577 1.112,-4.409 0,-1.336 -0.285,-2.547 -0.855,-3.634 -0.571,-1.088 -1.379,-2.024 -2.424,-2.805 -1.047,-0.783 -2.302,-1.394 -3.765,-1.832 -1.464,-0.439 -3.108,-0.658 -4.933,-0.658 -2.282,0 -4.525,0.342 -6.73,1.027 -2.205,0.686 -4.239,2.074 -6.102,4.167 l 3.08,4.167 c 1.33,-1.461 2.888,-2.519 4.676,-3.172 1.787,-0.654 3.517,-1 5.19,-1.038 0.684,0 1.378,0.067 2.082,0.201 0.703,0.135 1.34,0.347 1.91,0.636 0.57,0.288 1.046,0.672 1.426,1.153 0.38,0.481 0.57,1.048 0.57,1.701 0.038,1.269 -0.513,2.192 -1.653,2.769 -1.141,0.577 -2.758,0.962 -4.848,1.154 -1.332,0.115 -2.672,0.333 -4.021,0.659 -1.35,0.323 -2.577,0.8 -3.678,1.43 -1.104,0.63 -2.006,1.46 -2.709,2.49 -0.704,1.031 -1.056,2.328 -1.056,3.893 0,1.564 0.362,2.891 1.084,3.978 0.722,1.088 1.654,1.975 2.794,2.663 1.141,0.686 2.396,1.181 3.765,1.488 1.368,0.305 2.718,0.458 4.049,0.458 2.167,0 4.115,-0.277 5.845,-0.83 1.73,-0.554 3.394,-1.537 4.991,-2.948 z"
             style="fill:#636466;fill-opacity:1;fill-rule:nonzero;stroke:none"
             id="path68" />
        </g>
        <g
           id="g70"
           transform="translate(707.3197,132.7017)">
          <path
             d="m 0,0 -17.737,-41.33 h -6.501 l 5.817,13.509 L -29.656,0 h 6.844 l 4.847,-13.338 2.794,-8.015 3.024,7.9 L -6.559,0 Z"
             style="fill:#636466;fill-opacity:1;fill-rule:nonzero;stroke:none"
             id="path72" />
        </g>
        <g
           id="g74"
           transform="translate(732.2426,125.775)">
          <path
             d="m 0,0 c -1.104,1.03 -2.263,1.727 -3.479,2.089 -1.217,0.362 -2.529,0.544 -3.935,0.544 -1.825,0.038 -3.279,-0.238 -4.363,-0.83 -1.083,-0.592 -1.625,-1.441 -1.625,-2.547 0.037,-1.184 0.607,-2.032 1.711,-2.548 1.102,-0.515 2.566,-0.868 4.391,-1.059 1.292,-0.114 2.642,-0.295 4.049,-0.544 1.406,-0.249 2.699,-0.686 3.879,-1.316 1.178,-0.63 2.139,-1.498 2.88,-2.604 0.741,-1.108 1.112,-2.577 1.112,-4.409 0,-1.336 -0.285,-2.547 -0.855,-3.634 -0.571,-1.088 -1.379,-2.024 -2.424,-2.805 -1.047,-0.783 -2.302,-1.394 -3.765,-1.832 -1.464,-0.439 -3.108,-0.658 -4.933,-0.658 -2.282,0 -4.525,0.342 -6.73,1.027 -2.205,0.686 -4.239,2.074 -6.102,4.167 l 3.08,4.167 c 1.33,-1.461 2.888,-2.519 4.676,-3.172 1.787,-0.654 3.517,-1 5.19,-1.038 0.684,0 1.378,0.067 2.082,0.201 0.703,0.135 1.34,0.347 1.91,0.636 0.57,0.288 1.046,0.672 1.426,1.153 0.38,0.481 0.57,1.048 0.57,1.701 0.038,1.269 -0.513,2.192 -1.653,2.769 -1.141,0.577 -2.758,0.962 -4.848,1.154 -1.332,0.115 -2.672,0.333 -4.021,0.659 -1.35,0.323 -2.577,0.8 -3.678,1.43 -1.104,0.63 -2.006,1.46 -2.709,2.49 -0.704,1.031 -1.056,2.328 -1.056,3.893 0,1.564 0.362,2.891 1.084,3.978 0.722,1.088 1.654,1.975 2.794,2.663 1.141,0.686 2.396,1.181 3.765,1.488 1.368,0.305 2.718,0.458 4.049,0.458 2.167,0 4.115,-0.277 5.845,-0.83 1.73,-0.554 3.394,-1.537 4.991,-2.948 z"
             style="fill:#636466;fill-opacity:1;fill-rule:nonzero;stroke:none"
             id="path76" />
        </g>
        <g
           id="g78"
           transform="translate(754.6556,140.8297)">
          <path
             d="m 0,0 v -8.186 h 8.212 v -5.152 h -8.27 v -13.409 c 0,-1.484 0.333,-2.626 0.998,-3.425 0.665,-0.799 1.683,-1.197 3.052,-1.197 0.57,0 1.169,0.086 1.796,0.258 0.628,0.171 1.227,0.409 1.797,0.715 l 1.711,-5.038 c -0.989,-0.42 -1.931,-0.735 -2.823,-0.944 -0.894,-0.21 -1.835,-0.315 -2.824,-0.315 -3.079,-0.077 -5.446,0.722 -7.1,2.398 -1.653,1.675 -2.481,4.188 -2.481,7.538 v 13.419 h -5.418 v 5.152 h 5.418 v 7.557 z"
             style="fill:#636466;fill-opacity:1;fill-rule:nonzero;stroke:none"
             id="path80" />
        </g>
        <g
           id="g82"
           transform="translate(776.1566,121.3668)">
          <path
             d="M 0,0 H 17.052 C 16.861,2.252 16.025,3.95 14.543,5.095 13.06,6.24 11.121,6.812 8.726,6.812 6.559,6.812 4.676,6.24 3.079,5.095 1.482,3.95 0.456,2.252 0,0 M 22.698,-4.979 H -0.114 c 0.265,-2.176 1.216,-3.904 2.851,-5.181 1.634,-1.279 3.744,-1.918 6.33,-1.918 1.445,0 2.947,0.258 4.506,0.772 1.559,0.516 2.775,1.269 3.651,2.262 l 3.82,-3.722 c -0.723,-0.8 -1.56,-1.507 -2.509,-2.117 -0.951,-0.611 -1.949,-1.116 -2.994,-1.517 -1.047,-0.401 -2.139,-0.696 -3.279,-0.887 -1.141,-0.191 -2.244,-0.286 -3.308,-0.286 -2.32,0 -4.411,0.352 -6.274,1.058 -1.864,0.706 -3.451,1.707 -4.762,3.005 -1.312,1.298 -2.329,2.871 -3.051,4.723 -0.722,1.85 -1.084,3.902 -1.084,6.154 0,2.137 0.362,4.112 1.084,5.925 0.722,1.812 1.73,3.367 3.023,4.665 1.292,1.297 2.841,2.309 4.647,3.034 1.806,0.725 3.812,1.088 6.018,1.088 2.281,0 4.342,-0.353 6.187,-1.059 1.844,-0.707 3.403,-1.766 4.677,-3.177 1.273,-1.412 2.205,-3.187 2.795,-5.324 0.589,-2.138 0.75,-4.637 0.484,-7.498"
             style="fill:#636466;fill-opacity:1;fill-rule:nonzero;stroke:none"
             id="path84" />
        </g>
        <g
           id="g86"
           transform="translate(826.9135,104.4801)">
          <path
             d="m 0,0 v 15.552 c 0,1.032 -0.143,2.017 -0.428,2.955 -0.285,0.937 -0.713,1.76 -1.283,2.468 -0.57,0.707 -1.265,1.261 -2.082,1.664 -0.817,0.401 -1.739,0.602 -2.766,0.602 -1.026,0 -1.959,-0.201 -2.795,-0.602 -0.836,-0.403 -1.549,-0.957 -2.138,-1.664 -0.59,-0.708 -1.046,-1.531 -1.368,-2.468 -0.325,-0.938 -0.486,-1.923 -0.486,-2.955 V 0 h -5.874 v 28.278 h 5.475 l 0.399,-3.778 c 0.799,1.564 1.94,2.662 3.422,3.292 1.484,0.63 2.966,0.944 4.449,0.944 0.913,0 1.805,-0.095 2.68,-0.286 0.874,-0.191 1.701,-0.515 2.482,-0.972 0.778,-0.458 1.482,-1.051 2.11,-1.776 0.627,-0.724 1.149,-1.602 1.568,-2.633 1.141,2.099 2.546,3.558 4.22,4.379 1.673,0.821 3.479,1.232 5.418,1.232 3.916,0 6.882,-1.156 8.897,-3.464 2.015,-2.31 3.023,-5.505 3.023,-9.588 V 0 h -5.932 v 15.666 c 0,1.033 -0.134,2.009 -0.399,2.927 -0.266,0.918 -0.655,1.721 -1.169,2.41 -0.513,0.688 -1.16,1.224 -1.939,1.606 -0.78,0.383 -1.682,0.575 -2.709,0.575 -1.027,0 -1.967,-0.202 -2.823,-0.603 C 9.097,22.18 8.374,21.635 7.785,20.946 7.195,20.257 6.738,19.444 6.416,18.507 6.093,17.569 5.932,16.584 5.932,15.552 V 0 Z"
             style="fill:#636466;fill-opacity:1;fill-rule:nonzero;stroke:none"
             id="path88" />
        </g>
        <g
           id="g90"
           transform="translate(880.2377,125.775)">
          <path
             d="m 0,0 c -1.104,1.03 -2.263,1.727 -3.479,2.089 -1.217,0.362 -2.529,0.544 -3.935,0.544 -1.825,0.038 -3.279,-0.238 -4.363,-0.83 -1.083,-0.592 -1.625,-1.441 -1.625,-2.547 0.037,-1.184 0.607,-2.032 1.711,-2.548 1.102,-0.515 2.566,-0.868 4.391,-1.059 1.292,-0.114 2.642,-0.295 4.049,-0.544 1.406,-0.249 2.699,-0.686 3.879,-1.316 1.178,-0.63 2.139,-1.498 2.88,-2.604 0.741,-1.108 1.112,-2.577 1.112,-4.409 0,-1.336 -0.285,-2.547 -0.855,-3.634 -0.571,-1.088 -1.379,-2.024 -2.424,-2.805 -1.047,-0.783 -2.302,-1.394 -3.765,-1.832 -1.464,-0.439 -3.108,-0.658 -4.933,-0.658 -2.282,0 -4.525,0.342 -6.73,1.027 -2.205,0.686 -4.239,2.074 -6.102,4.167 l 3.08,4.167 c 1.33,-1.461 2.888,-2.519 4.676,-3.172 1.787,-0.654 3.517,-1 5.19,-1.038 0.684,0 1.378,0.067 2.082,0.201 0.703,0.135 1.34,0.347 1.91,0.636 0.57,0.288 1.046,0.672 1.426,1.153 0.38,0.481 0.57,1.048 0.57,1.701 0.038,1.269 -0.513,2.192 -1.653,2.769 -1.141,0.577 -2.758,0.962 -4.848,1.154 -1.332,0.115 -2.672,0.333 -4.021,0.659 -1.35,0.323 -2.577,0.8 -3.678,1.43 -1.104,0.63 -2.006,1.46 -2.709,2.49 -0.704,1.031 -1.056,2.328 -1.056,3.893 0,1.564 0.362,2.891 1.084,3.978 0.722,1.088 1.654,1.975 2.794,2.663 1.141,0.686 2.396,1.181 3.765,1.488 1.368,0.305 2.718,0.458 4.049,0.458 2.167,0 4.115,-0.277 5.845,-0.83 1.73,-0.554 3.394,-1.537 4.991,-2.948 z"
             style="fill:#636466;fill-opacity:1;fill-rule:nonzero;stroke:none"
             id="path92" />
        </g>
        <path
           d="m 916.737,104.48 h -5.874 v 40.014 h 5.874 z"
           style="fill:#636466;fill-opacity:1;fill-rule:nonzero;stroke:none"
           id="path94" />
        <g
           id="g96"
           transform="translate(936.8685,140.8297)">
          <path
             d="m 0,0 v -8.186 h 8.212 v -5.152 h -8.27 v -13.409 c 0,-1.484 0.333,-2.626 0.998,-3.425 0.665,-0.799 1.683,-1.197 3.052,-1.197 0.57,0 1.169,0.086 1.796,0.258 0.628,0.171 1.227,0.409 1.797,0.715 l 1.711,-5.038 c -0.989,-0.42 -1.931,-0.735 -2.823,-0.944 -0.894,-0.21 -1.835,-0.315 -2.824,-0.315 -3.079,-0.077 -5.446,0.722 -7.1,2.398 -1.653,1.675 -2.481,4.188 -2.481,7.538 v 13.419 h -5.418 v 5.152 h 5.418 v 7.557 z"
             style="fill:#636466;fill-opacity:1;fill-rule:nonzero;stroke:none"
             id="path98" />
        </g>
        <g
           id="g100"
           transform="translate(966.9242,127.8355)">
          <path
             d="m 0,0 c -1.255,0 -2.424,-0.211 -3.508,-0.632 -1.084,-0.421 -2.024,-1.023 -2.823,-1.808 -0.798,-0.787 -1.426,-1.744 -1.882,-2.872 -0.456,-1.128 -0.684,-2.421 -0.684,-3.876 0,-1.416 0.228,-2.698 0.684,-3.846 0.456,-1.149 1.084,-2.126 1.882,-2.93 0.799,-0.804 1.739,-1.417 2.823,-1.837 1.084,-0.422 2.253,-0.632 3.508,-0.632 1.216,0 2.366,0.22 3.45,0.661 1.084,0.44 2.033,1.062 2.852,1.867 0.817,0.802 1.463,1.779 1.939,2.927 0.475,1.149 0.713,2.412 0.713,3.79 0,1.377 -0.238,2.631 -0.713,3.761 C 7.765,-4.298 7.119,-3.331 6.302,-2.526 5.483,-1.724 4.534,-1.101 3.45,-0.661 2.366,-0.221 1.216,0 0,0 M 15.228,16.658 V -23.355 H 9.695 l -0.342,4.464 c -1.103,-1.794 -2.538,-3.082 -4.306,-3.864 -1.768,-0.781 -3.584,-1.173 -5.446,-1.173 -2.054,0 -3.955,0.324 -5.704,0.973 -1.749,0.648 -3.26,1.603 -4.534,2.862 -1.274,1.26 -2.281,2.805 -3.022,4.637 -0.741,1.832 -1.112,3.912 -1.112,6.24 0,2.404 0.361,4.522 1.083,6.354 0.722,1.832 1.72,3.368 2.995,4.608 1.273,1.239 2.774,2.175 4.505,2.805 1.729,0.63 3.622,0.944 5.674,0.944 0.836,0 1.74,-0.105 2.709,-0.314 C 3.165,4.971 4.106,4.655 5.019,4.236 5.931,3.815 6.767,3.292 7.528,2.662 8.288,2.032 8.896,1.297 9.353,0.458 v 16.2 z"
             style="fill:#636466;fill-opacity:1;fill-rule:nonzero;stroke:none"
             id="path102" />
        </g>
        <g
           id="g104"
           transform="translate(992.3021,107.6285)">
          <path
             d="m 0,0 c 0,1.183 0.38,2.079 1.141,2.69 0.76,0.611 1.587,0.916 2.481,0.916 0.893,0 1.72,-0.305 2.481,-0.916 C 6.862,2.079 7.243,1.183 7.243,0 7.243,-1.222 6.862,-2.138 6.103,-2.748 5.342,-3.357 4.515,-3.664 3.622,-3.664 2.728,-3.664 1.901,-3.357 1.141,-2.748 0.38,-2.138 0,-1.222 0,0"
             style="fill:#636466;fill-opacity:1;fill-rule:nonzero;stroke:none"
             id="path106" />
        </g>
        <g
           id="g108"
           transform="translate(1041.976,127.8355)">
          <path
             d="m 0,0 c -1.218,0 -2.377,-0.221 -3.479,-0.661 -1.103,-0.44 -2.063,-1.063 -2.88,-1.865 -0.818,-0.805 -1.464,-1.772 -1.939,-2.901 -0.476,-1.13 -0.713,-2.384 -0.713,-3.761 0,-1.378 0.237,-2.641 0.713,-3.79 0.475,-1.148 1.121,-2.125 1.939,-2.927 0.817,-0.805 1.768,-1.427 2.851,-1.867 1.084,-0.441 2.253,-0.661 3.508,-0.661 1.216,0 2.367,0.21 3.45,0.632 1.084,0.42 2.025,1.033 2.823,1.837 0.799,0.804 1.435,1.781 1.911,2.93 0.475,1.148 0.712,2.43 0.712,3.846 0,1.455 -0.237,2.748 -0.712,3.876 C 7.708,-4.184 7.072,-3.227 6.273,-2.44 5.475,-1.655 4.534,-1.053 3.45,-0.632 2.367,-0.211 1.216,0 0,0 m -9.354,16.658 v -16.2 c 0.457,0.839 1.065,1.574 1.826,2.204 0.759,0.63 1.596,1.153 2.509,1.574 0.913,0.419 1.844,0.735 2.794,0.945 0.951,0.209 1.863,0.314 2.739,0.314 2.014,0 3.896,-0.314 5.645,-0.944 1.748,-0.63 3.26,-1.566 4.534,-2.805 1.274,-1.24 2.272,-2.776 2.995,-4.608 0.721,-1.832 1.083,-3.95 1.083,-6.354 0,-2.328 -0.371,-4.408 -1.112,-6.24 -0.741,-1.832 -1.749,-3.377 -3.022,-4.637 -1.275,-1.259 -2.786,-2.214 -4.534,-2.862 -1.75,-0.649 -3.651,-0.973 -5.704,-0.973 -1.902,0 -3.726,0.392 -5.475,1.173 -1.749,0.782 -3.175,2.07 -4.278,3.864 l -0.341,-4.464 h -5.533 v 40.013 z"
             style="fill:#636466;fill-opacity:1;fill-rule:nonzero;stroke:none"
             id="path110" />
        </g>
        <g
           id="g112"
           transform="translate(1071.3461,132.7017)">
          <path
             d="m 0,0 0.399,-3.722 c 1.027,1.794 2.282,2.967 3.765,3.521 1.482,0.553 2.984,0.83 4.505,0.83 1.369,0 2.671,-0.22 3.907,-0.658 1.235,-0.439 2.253,-1.022 3.051,-1.746 l -2.681,-5.152 c -0.722,0.573 -1.454,1.002 -2.195,1.288 C 10.01,-5.353 9.087,-5.21 7.985,-5.21 6.958,-5.21 5.988,-5.372 5.076,-5.696 4.164,-6.02 3.365,-6.498 2.681,-7.127 1.996,-7.757 1.445,-8.559 1.027,-9.531 0.608,-10.505 0.399,-11.641 0.399,-12.937 V -28.222 H -5.475 V 0 Z"
             style="fill:#636466;fill-opacity:1;fill-rule:nonzero;stroke:none"
             id="path114" />
        </g>
        <g
           id="g116"
           transform="translate(1106.306,127.9498)">
          <path
             d="m 0,0 c -1.255,0 -2.434,-0.22 -3.536,-0.658 -1.103,-0.44 -2.072,-1.059 -2.908,-1.861 -0.837,-0.801 -1.493,-1.774 -1.968,-2.918 -0.476,-1.146 -0.713,-2.444 -0.713,-3.893 0,-1.451 0.237,-2.758 0.713,-3.922 0.475,-1.164 1.131,-2.146 1.968,-2.948 0.836,-0.801 1.805,-1.422 2.908,-1.861 1.102,-0.438 2.281,-0.658 3.536,-0.658 2.015,0 3.697,0.458 5.048,1.374 1.348,0.916 2.366,2.071 3.051,3.463 0.684,1.394 1.026,2.901 1.026,4.523 0,1.622 -0.342,3.129 -1.026,4.522 C 7.414,-3.444 6.396,-2.289 5.048,-1.374 3.697,-0.458 2.015,0 0,0 M 9.125,0.286 9.297,4.752 H 15 V -23.47 H 9.41 l -0.285,4.579 c -0.456,-0.915 -1.055,-1.708 -1.796,-2.375 -0.741,-0.668 -1.559,-1.221 -2.452,-1.66 -0.895,-0.439 -1.807,-0.762 -2.738,-0.973 -0.932,-0.209 -1.835,-0.315 -2.709,-0.315 -2.053,0 -3.964,0.324 -5.732,0.973 -1.767,0.649 -3.289,1.603 -4.562,2.862 -1.275,1.26 -2.282,2.815 -3.023,4.666 -0.741,1.851 -1.112,3.979 -1.112,6.383 0,2.365 0.38,4.465 1.141,6.297 0.759,1.831 1.796,3.367 3.108,4.607 1.312,1.24 2.852,2.185 4.619,2.834 1.769,0.649 3.659,0.973 5.675,0.973 C 1.559,5.381 3.44,4.933 5.19,4.036 6.938,3.139 8.25,1.89 9.125,0.286"
             style="fill:#636466;fill-opacity:1;fill-rule:nonzero;stroke:none"
             id="path118" />
        </g>
        <g
           id="g120"
           transform="translate(1153.4711,104.4801)">
          <path
             d="m 0,0 v 15.075 c 0,2.437 -0.656,4.397 -1.968,5.882 -1.311,1.484 -3.184,2.227 -5.617,2.227 -1.18,0 -2.253,-0.219 -3.223,-0.657 -0.969,-0.438 -1.796,-1.048 -2.481,-1.827 -0.684,-0.781 -1.217,-1.685 -1.597,-2.713 -0.38,-1.028 -0.57,-2.113 -0.57,-3.255 V 0 h -5.874 v 28.278 h 5.361 l 0.342,-4.121 c 2.661,3.014 5.817,4.523 9.468,4.523 1.711,0 3.298,-0.297 4.762,-0.888 C 0.065,27.2 1.34,26.332 2.424,25.187 3.507,24.042 4.362,22.63 4.99,20.951 5.617,19.271 5.931,17.345 5.931,15.17 V 0 Z"
             style="fill:#636466;fill-opacity:1;fill-rule:nonzero;stroke:none"
             id="path122" />
        </g>
        <g
           id="g124"
           transform="translate(1182.8412,127.8355)">
          <path
             d="m 0,0 c -1.255,0 -2.424,-0.211 -3.508,-0.632 -1.084,-0.421 -2.024,-1.023 -2.823,-1.808 -0.798,-0.787 -1.426,-1.744 -1.882,-2.872 -0.456,-1.128 -0.684,-2.421 -0.684,-3.876 0,-1.416 0.228,-2.698 0.684,-3.846 0.456,-1.149 1.084,-2.126 1.882,-2.93 0.799,-0.804 1.739,-1.417 2.823,-1.837 1.084,-0.422 2.253,-0.632 3.508,-0.632 1.216,0 2.366,0.22 3.45,0.661 1.084,0.44 2.033,1.062 2.852,1.867 0.817,0.802 1.463,1.779 1.939,2.927 0.475,1.149 0.713,2.412 0.713,3.79 0,1.377 -0.238,2.631 -0.713,3.761 C 7.765,-4.298 7.119,-3.331 6.302,-2.526 5.483,-1.724 4.534,-1.101 3.45,-0.661 2.366,-0.221 1.216,0 0,0 M 15.228,16.658 V -23.355 H 9.695 l -0.342,4.464 c -1.103,-1.794 -2.538,-3.082 -4.306,-3.864 -1.768,-0.781 -3.584,-1.173 -5.446,-1.173 -2.054,0 -3.955,0.324 -5.704,0.973 -1.749,0.648 -3.26,1.603 -4.534,2.862 -1.274,1.26 -2.281,2.805 -3.022,4.637 -0.741,1.832 -1.112,3.912 -1.112,6.24 0,2.404 0.361,4.522 1.083,6.354 0.722,1.832 1.72,3.368 2.995,4.608 1.273,1.239 2.774,2.175 4.505,2.805 1.729,0.63 3.622,0.944 5.674,0.944 0.836,0 1.74,-0.105 2.709,-0.314 C 3.165,4.971 4.106,4.655 5.019,4.236 5.931,3.815 6.767,3.292 7.528,2.662 8.288,2.032 8.896,1.297 9.353,0.458 v 16.2 z"
             style="fill:#636466;fill-opacity:1;fill-rule:nonzero;stroke:none"
             id="path126" />
        </g>
        <path
           d="M 355.828,99.14 H 107.202 v 265.923 h 248.626 z"
           style="fill:#28aae1;fill-opacity:1;fill-rule:nonzero;stroke:none"
           id="path128" />
        <path
           d="M 107.442,99.379 H 355.59 V 364.823 H 107.442 Z M 356.067,98.902 H 106.964 v 266.399 h 249.103 z"
           style="fill:#28aae1;fill-opacity:1;fill-rule:nonzero;stroke:none"
           id="path130" />
        <g
           id="g132"
           transform="translate(341.8837,229.1607)">
          <path
             d="m 0,0 h -2.865 c 0,54.45 -44.298,98.748 -98.748,98.748 -54.45,0 -98.748,-44.298 -98.748,-98.748 h -2.864 c 0,56.029 45.583,101.612 101.612,101.612 C -45.583,101.612 0,56.029 0,0"
             style="fill:#ffffff;fill-opacity:1;fill-rule:nonzero;stroke:none"
             id="path134" />
        </g>
        <g
           id="g136"
           transform="translate(241.2269,114.7896)">
          <path
             d="m 0,0 c -31.984,0 -62.052,12.697 -84.666,35.752 -22.605,23.049 -35.055,53.69 -35.055,86.281 0,16.413 3.169,31.885 9.418,45.987 5.982,13.498 14.629,25.419 25.699,35.434 21.937,19.845 51.983,30.774 84.604,30.774 v -2.865 c -31.91,0 -61.273,-10.667 -82.682,-30.034 -10.772,-9.744 -19.183,-21.342 -25.002,-34.47 -6.087,-13.734 -9.173,-28.815 -9.173,-44.826 0,-31.836 12.159,-61.765 34.236,-84.274 C -60.55,15.257 -31.208,2.864 0,2.864 Z"
             style="fill:#ffffff;fill-opacity:1;fill-rule:nonzero;stroke:none"
             id="path138" />
        </g>
        <g
           id="g140"
           transform="translate(330.8431,228.0757)">
          <path
             d="m 0,0 h -2.864 c 0,47.194 -38.917,85.589 -86.752,85.589 -47.836,0 -86.753,-38.395 -86.753,-85.589 h -2.864 c 0,48.774 40.202,88.454 89.617,88.454 C -40.202,88.454 0,48.774 0,0"
             style="fill:#ffffff;fill-opacity:1;fill-rule:nonzero;stroke:none"
             id="path142" />
        </g>
        <g
           id="g144"
           transform="translate(261.1263,260.2183)">
          <path
             d="m 0,0 c -1.51,0.146 -3.069,0.22 -4.676,0.22 -11.887,0 -22.067,-4.215 -30.543,-12.642 -8.38,-8.379 -12.569,-18.559 -12.569,-30.543 v -55.46 h -8.037 v 55.46 c -0.05,14.176 4.92,26.28 14.906,36.316 9.985,9.937 22.042,14.906 36.169,14.906 1.608,0 3.19,-0.073 4.75,-0.22 z"
             style="fill:#ffffff;fill-opacity:1;fill-rule:nonzero;stroke:none"
             id="path146" />
        </g>
        <g
           id="g148"
           transform="translate(207.1737,163.6666)">
          <path
             d="m 0,0 h 4.292 v 53.587 c 0,12.442 4.414,23.164 13.117,31.867 8.805,8.754 19.526,13.191 31.867,13.191 0.946,0 1.883,-0.026 2.804,-0.076 v 4.285 c -0.951,0.054 -1.913,0.082 -2.877,0.082 -13.549,0 -25.273,-4.832 -34.849,-14.361 C 4.785,78.958 -0.047,67.187 0,53.594 Z M 8.038,-3.746 H -3.745 v 57.333 c -0.051,14.617 5.148,27.282 15.452,37.637 10.308,10.258 22.921,15.458 37.496,15.458 1.658,0 3.315,-0.078 4.925,-0.229 l 1.697,-0.159 V 94.488 l -2.053,0.2 c -1.443,0.14 -2.956,0.21 -4.496,0.21 -11.317,0 -21.149,-4.069 -29.222,-12.096 C 12.082,74.83 8.038,65 8.038,53.587 Z"
             style="fill:#ffffff;fill-opacity:1;fill-rule:nonzero;stroke:none"
             id="path150" />
        </g>
      </g>
    </g>
  </g>
</svg>
